# xmcd CD database file
#
# Track frame offsets:
#	150
#	13171
#	22804
#	34818
#	47112
#	57119
#	70180
#	83727
#	98443
#	118592
#	130836
#	143111
#	159122
#	173648
#	186114
#	201494
#	212553
#	228327
#	244834
#	257828
#
# Disc length: 3654 seconds
#
# Revision: 1
# Processed by: cddbd v1.5.2PL0 Copyright (c) Steve Scherf et al.
# Submitted via: CDex 1.70beta2
#
DISCID=070e4414
DTITLE=Django Reinhardt and Stéphane Grappelli - Les Rois du Swing Manouche 4
DYEAR=2009
DGENRE=Jazz
TTITLE0=Liza
TTITLE1=What is this thing called love
TTITLE2=Ol' man river
TTITLE3=Si tu savais
TTITLE4=Eveline
TTITLE5=Vingt six
TTITLE6=How high the moon (take 1)
TTITLE7=I love you
TTITLE8=Manoir de mes rêves
TTITLE9=Over the rainbow
TTITLE10=Minor blues
TTITLE11=Nature boy
TTITLE12=Swing 39
TTITLE13=Djangology
TTITLE14=(I love you) for sentimental reasons
TTITLE15=Swing 42
TTITLE16=Just a gigolo
TTITLE17=Troublant bolero
TTITLE18=Brazil
TTITLE19=What a difference a day made
EXTD=YEAR: 2009
EXTT0=
EXTT1=
EXTT2=
EXTT3=
EXTT4=
EXTT5=
EXTT6=
EXTT7=
EXTT8=
EXTT9=
EXTT10=
EXTT11=
EXTT12=
EXTT13=
EXTT14=
EXTT15=
EXTT16=
EXTT17=
EXTT18=
EXTT19=
PLAYORDER=
